HIERARCHY
ROOT joint_Root
{
	OFFSET 0.0 0.0 0.0
	CHANNELS 6 Xposition Yposition Zposition Zrotation Xrotation Yrotation 
	JOINT Hips
	{
		OFFSET 4.5925 91.4895 -427.239
		CHANNELS 6 Xposition Yposition Zposition Zrotation Xrotation Yrotation 
		JOINT Spine
		{
			OFFSET 15.7357 0.0 0.0
			CHANNELS 6 Xposition Yposition Zposition Zrotation Xrotation Yrotation 
			JOINT Chest
			{
				OFFSET 8.98455 -0.406207 0.0
				CHANNELS 6 Xposition Yposition Zposition Zrotation Xrotation Yrotation 
				JOINT Neck
				{
					OFFSET 16.3773 0.0 0.0
					CHANNELS 6 Xposition Yposition Zposition Zrotation Xrotation Yrotation 
					JOINT Head
					{
						OFFSET 6.45672 0.0 0.0
						CHANNELS 6 Xposition Yposition Zposition Zrotation Xrotation Yrotation 
						End Site
						{
							OFFSET 0.0 0.0 0.0
						}
					}
				}
				JOINT Shoulder_L
				{
					OFFSET 12.9942 -0.242716 4.98039
					CHANNELS 6 Xposition Yposition Zposition Zrotation Xrotation Yrotation 
					JOINT UpperArm_L
					{
						OFFSET 5.34809 0.0 0.0
						CHANNELS 6 Xposition Yposition Zposition Zrotation Xrotation Yrotation 
						JOINT LowerArm_L
						{
							OFFSET 24.3286 1.87007e-05 0.0
							CHANNELS 6 Xposition Yposition Zposition Zrotation Xrotation Yrotation 
							JOINT Hand_L
							{
								OFFSET 22.2916 0.0 0.0
								CHANNELS 6 Xposition Yposition Zposition Zrotation Xrotation Yrotation 
								End Site
								{
									OFFSET 0.0 0.0 0.0
								}
							}
						}
					}
				}
				JOINT Shoulder_R
				{
					OFFSET 12.9945 -0.242716 -4.98039
					CHANNELS 6 Xposition Yposition Zposition Zrotation Xrotation Yrotation 
					JOINT UpperArm_R
					{
						OFFSET -5.34813 0.0 0.0
						CHANNELS 6 Xposition Yposition Zposition Zrotation Xrotation Yrotation 
						JOINT LowerArm_R
						{
							OFFSET -24.3289 0.000322201 0.0
							CHANNELS 6 Xposition Yposition Zposition Zrotation Xrotation Yrotation 
							JOINT Hand_R
							{
								OFFSET -22.2915 -0.000108084 0.0
								CHANNELS 6 Xposition Yposition Zposition Zrotation Xrotation Yrotation 
								End Site
								{
									OFFSET 0.0 0.0 0.0
								}
							}
						}
					}
				}
			}
		}
		JOINT UpperLeg_L
		{
			OFFSET -2.19248 -6.46944 0.0
			CHANNELS 6 Xposition Yposition Zposition Zrotation Xrotation Yrotation 
			JOINT LowerLeg_L
			{
				OFFSET 39.0811 0.0 -1.23785e-05
				CHANNELS 6 Xposition Yposition Zposition Zrotation Xrotation Yrotation 
				JOINT Foot_L
				{
					OFFSET 40.9854 0.0 -1.26872e-05
					CHANNELS 6 Xposition Yposition Zposition Zrotation Xrotation Yrotation 
					JOINT Toes_L
					{
						OFFSET 11.7543 0.0 0.0
						CHANNELS 6 Xposition Yposition Zposition Zrotation Xrotation Yrotation 
						End Site
						{
							OFFSET 0.0 0.0 0.0
						}
					}
				}
			}
		}
		JOINT UpperLeg_R
		{
			OFFSET -2.19251 6.46944 0.0
			CHANNELS 6 Xposition Yposition Zposition Zrotation Xrotation Yrotation 
			JOINT LowerLeg_R
			{
				OFFSET -39.0811 -0.00228153 -0.0401928
				CHANNELS 6 Xposition Yposition Zposition Zrotation Xrotation Yrotation 
				JOINT Foot_R
				{
					OFFSET -40.9854 0.0 0.0
					CHANNELS 6 Xposition Yposition Zposition Zrotation Xrotation Yrotation 
					JOINT Toes_R
					{
						OFFSET -11.7543 0.0 0.0
						CHANNELS 6 Xposition Yposition Zposition Zrotation Xrotation Yrotation 
						End Site
						{
							OFFSET 0.0 0.0 0.0
						}
					}
				}
			}
		}
	}
}
MOTION
Frames:	4
Frame Time:	0.0333333
0.000000 0.000000 0.000000 0.000000 0.000000 -0.000000 -0.350862 83.881200 -4.922050 86.841000 -2.365810 4.810570 15.735700 0.000005 -0.000001 88.237000 79.858300 -88.491400 8.984550 -0.406207 -0.000000 12.506900 -0.628665 -0.439974 16.377300 -0.000001 -0.000001 -7.982120 -4.097760 1.096240 6.456720 -0.000001 -0.000000 -9.663850 -4.751710 3.970360 12.994200 -0.242716 4.980390 -89.441500 -2.297140 -76.331400 5.348090 -0.000007 -0.000001 -68.575500 40.301500 -11.457800 24.328600 0.000019 0.000005 8.568870 29.129200 -17.205300 22.291600 -0.000001 0.000005 -1.708640 5.152840 3.883150 12.994500 -0.242716 -4.980390 89.412400 5.254190 -83.610400 -5.348130 -0.000001 -0.000004 -63.553800 48.547300 -10.570400 -24.328900 0.000322 -0.000009 3.762280 14.410000 -14.807200 -22.291500 -0.000108 -0.000004 -19.912500 4.977420 7.790310 -2.192480 -6.469440 -0.000000 -173.748000 -8.628120 -23.178100 39.081100 -0.000007 -0.000012 -0.557953 0.335266 59.000200 40.985400 -0.000006 -0.000013 -0.035566 2.170220 -80.946700 11.754300 -0.000000 0.000003 -0.000392 -0.003249 -16.697500 -2.192510 6.469440 -0.000001 -178.795000 9.924540 158.008000 -39.081100 -0.002282 -0.040193 0.083444 -0.051083 57.514700 -40.985400 0.000008 0.000006 6.814550 3.010010 -80.872300 -11.754300 -0.000006 -0.000006 -0.174995 -0.217980 -16.921000
0.000000 0.000000 0.000000 0.000000 0.000000 -0.000000 -0.267291 86.252800 -4.002720 87.316100 -3.013570 4.837960 15.735700 0.000005 -0.000001 88.735200 81.450500 -89.103400 8.984550 -0.406207 -0.000000 9.327770 -0.380334 -0.704797 16.377300 -0.000001 -0.000001 -5.000990 -4.215510 1.436170 6.456720 -0.000001 -0.000000 -6.813520 -4.679030 3.153050 12.994200 -0.242716 4.980390 -89.193500 -3.237840 -76.005800 5.348090 -0.000007 -0.000001 -58.594300 37.573100 -24.113800 24.328600 0.000019 0.000005 10.062400 27.425500 -21.065800 22.291600 -0.000001 0.000005 2.720790 5.179560 3.233970 12.994500 -0.242716 -4.980390 89.679300 2.909820 -83.703800 -5.348130 -0.000001 -0.000004 -53.887900 46.713600 -24.163500 -24.328900 0.000322 -0.000009 3.458270 11.331200 -17.111000 -22.291500 -0.000108 -0.000004 -9.536620 5.117640 4.832480 -2.192480 -6.469440 -0.000000 -174.179000 -9.711330 -18.454700 39.081100 -0.000007 -0.000012 -0.422907 0.337601 51.401100 40.985400 -0.000006 -0.000013 0.044035 2.571110 -77.991200 11.754300 -0.000000 0.000003 -0.000309 -0.002670 -16.676900 -2.192510 6.469440 -0.000001 -179.777000 11.526000 162.355000 -39.081100 -0.002282 -0.040193 0.067094 -0.053058 50.273100 -40.985400 0.000008 0.000006 7.298040 5.671050 -77.721100 -11.754300 -0.000006 -0.000006 -0.231182 -0.290676 -17.295800
0.000000 0.000000 0.000000 0.000000 0.000000 -0.000000 -0.047100 88.589800 -2.903080 87.993900 -3.574560 5.404210 15.735700 0.000005 -0.000001 89.519300 82.962000 -89.961600 8.984550 -0.406207 -0.000000 6.309120 -0.112143 -0.877400 16.377300 -0.000001 -0.000001 -0.825088 -4.226590 1.530750 6.456720 -0.000001 -0.000000 -3.396980 -4.647890 2.553510 12.994200 -0.242716 4.980390 -88.892600 -4.245500 -75.368600 5.348090 -0.000007 -0.000001 -49.505800 29.504800 -37.459500 24.328600 0.000019 0.000005 13.036200 28.358800 -25.987600 22.291600 -0.000001 0.000005 5.204330 5.202020 2.668340 12.994500 -0.242716 -4.980390 89.943600 0.446059 -82.768400 -5.348130 -0.000001 -0.000004 -42.741700 39.593700 -38.434900 -24.328900 0.000322 -0.000009 3.731490 8.943790 -22.757600 -22.291500 -0.000108 -0.000004 -0.482395 5.208010 2.520760 -2.192480 -6.469440 -0.000000 -174.800000 -10.475500 -12.447800 39.081100 -0.000007 -0.000012 -0.319037 0.347888 42.523600 40.985400 -0.000006 -0.000013 0.051703 2.782110 -74.540900 11.754300 -0.000000 0.000003 -0.000197 -0.001827 -16.646500 -2.192510 6.469440 -0.000001 178.549000 14.037100 167.833000 -39.081100 -0.002282 -0.040193 0.050053 -0.051695 42.142700 -40.985400 0.000008 0.000006 7.488450 9.441240 -74.071900 -11.754300 -0.000006 -0.000006 -0.291992 -0.369502 -17.891400
0.000000 0.000000 0.000000 0.000000 0.000000 -0.000000 0.008845 90.238800 -1.921090 88.203100 -4.297340 5.240780 15.735700 0.000005 -0.000001 90.519700 84.425300 -90.835200 8.984550 -0.406207 -0.000000 3.383270 0.113083 -0.633661 16.377300 -0.000001 -0.000001 2.755840 -4.140120 1.607430 6.456720 -0.000001 -0.000000 -0.332746 -4.205330 1.844630 12.994200 -0.242716 4.980390 -88.406700 -5.901070 -74.862200 5.348090 -0.000007 -0.000001 -44.907700 16.858000 -48.066700 24.328600 0.000019 0.000005 15.179200 25.717600 -32.016900 22.291600 -0.000001 0.000005 6.996170 5.211000 2.449440 12.994500 -0.242716 -4.980390 90.298100 -2.027540 -81.644500 -5.348130 -0.000001 -0.000004 -36.030700 25.983500 -49.627600 -24.328900 0.000322 -0.000009 5.450890 9.254080 -30.682600 -22.291500 -0.000108 -0.000004 2.159450 5.207160 2.562370 -2.192480 -6.469440 -0.000000 -174.919000 -11.261700 -7.950400 39.081100 -0.000007 -0.000012 -0.247282 0.353076 35.006500 40.985400 -0.000006 -0.000013 -0.108991 2.941480 -71.625200 11.754300 -0.000000 0.000003 -0.000142 -0.001389 -16.630400 -2.192510 6.469440 -0.000001 177.715000 15.962900 171.893000 -39.081100 -0.002282 -0.040193 0.034346 -0.044093 35.157800 -40.985400 0.000008 0.000006 7.334950 12.622100 -70.949200 -11.754300 -0.000006 -0.000006 -0.419401 -0.521454 -18.281900
